# xmcd
# 
# Track frame offsets:
#     150
#     20430
#     43760
#     60428
#     77525
#     88785
#     109738
#     133548
#     156770
#     177690
#     202363
# 
# Disc length: 2919
# 
# Revision: 27
# Processed by: cddbd v1.5.2PL0 Copyright (c) Steve Scherf et al.
# Submitted via: fre:ac v1.0.31
# 
DISCID=940b650b
DTITLE=Sting - Ten Summoner's Tales
DYEAR=1993
DGENRE=07-Jazz-influenced Rock
TTITLE0=If I Ever Lose My Faith In You
TTITLE1=Love Is Stronger Than Justice (The Munificent Seven)
TTITLE2=Fields Of Gold
TTITLE3=Heavy Cloud No Rain
TTITLE4=She's Too Good For Me
TTITLE5=Seven Days
TTITLE6=Saint Augustine In Hell
TTITLE7=It's Probably Me
TTITLE8=Shape Of My Heart
TTITLE9=Something The Boy Said
TTITLE10=Epilogue (Nothing 'Bout Me)
EXTD=
EXTT0=
EXTT1=
EXTT2=
EXTT3=
EXTT4=
EXTT5=
EXTT6=
EXTT7=
EXTT8=
EXTT9=
EXTT10=
PLAYORDER=
